<?xml version="1.0" encoding="UTF-8"?>
<svg id="Layer_1" data-name="Layer 1" xmlns="http://www.w3.org/2000/svg" xmlns:xlink="http://www.w3.org/1999/xlink" viewBox="0 0 258.61 274.15">
  <defs>
    <style>
      .cls-1 {
        clip-path: url(#clippath-2);
      }

      .cls-2, .cls-3 {
        stroke-width: 0px;
      }

      .cls-2, .cls-4 {
        fill: none;
      }

      .cls-5 {
        clip-path: url(#clippath-1);
      }

      .cls-6 {
        clip-path: url(#clippath-4);
      }

      .cls-3 {
        fill: url(#Orange_Yellow);
      }

      .cls-7 {
        fill: #1d1d1b;
        font-family: CommercialScriptBT-Regular, 'CommercialScript BT';
        font-size: 246.59px;
      }

      .cls-8 {
        clip-path: url(#clippath);
      }

      .cls-9 {
        clip-path: url(#clippath-3);
      }

      .cls-4 {
        stroke: #36a9e1;
        stroke-miterlimit: 10;
        stroke-width: 15px;
      }
    </style>
    <clipPath id="clippath">
      <path class="cls-2" d="m143.93,177.03c2.02-3.53,5.28-7,9.8-10.43l-.32-.28c-1.87-.23-3.73-.48-5.6-.74-.76.72-1.54,1.48-2.36,2.31-2.75,2.8-4.85,5.59-6.32,8.36.46.08,1.26.22,1.52.27,1.09.18,2.19.34,3.29.51Z"/>
    </clipPath>
    <linearGradient id="Orange_Yellow" data-name="Orange, Yellow" x1="38.67" y1="118.65" x2="247.9" y2="118.65" gradientUnits="userSpaceOnUse">
      <stop offset="0" stop-color="#ffef26"/>
      <stop offset=".02" stop-color="#fee921"/>
      <stop offset=".1" stop-color="#fdd70e"/>
      <stop offset=".19" stop-color="#fdcb03"/>
      <stop offset=".28" stop-color="#fdc800"/>
      <stop offset=".67" stop-color="#f18f34"/>
      <stop offset=".89" stop-color="#e95f32"/>
      <stop offset="1" stop-color="#e3312d"/>
    </linearGradient>
    <clipPath id="clippath-1">
      <path class="cls-2" d="m122.35,94.15c-2.87,4.74-6.39,9.14-10.54,13.19l.58.29c5.17-.82,10.62-1.58,16.19-2.26,1.95-3.93,3.36-8.1,4.23-12.51-3.68.42-7.13.84-10.46,1.29Z"/>
    </clipPath>
    <clipPath id="clippath-2">
      <path class="cls-2" d="m232.23,83.9c-2.07.38-4.22.73-6.42,1.01-5.64.73-11.3,1.24-16.65,1.68-1.09,4.2-2.73,8.33-4.91,12.4h.01c6.21-.5,10.99-.93,15.49-1.39,3.35-.34,6.18-.68,8.74-1.06,2.32-3.98,3.56-8.2,3.73-12.65Z"/>
    </clipPath>
    <clipPath id="clippath-3">
      <path class="cls-2" d="m204.3,56.8c-2.01-.36-4.1-.69-6.24-.98-6.2,1.92-12.54,5.14-19.02,9.64l.69.57c2.79.19,6.33.45,10.01.81,4.6-4.52,9.38-7.66,14.34-9.4.37.33.7.68,1.04,1.03l.05-.08-.06-.67-.82-.9Z"/>
    </clipPath>
    <clipPath id="clippath-4">
      <path class="cls-2" d="m37.54,30.33v176.64h211.47V30.33H37.54Zm91.03,75.04c-5.58.68-11.02,1.44-16.19,2.26l-.58-.29c4.15-4.05,7.67-8.44,10.54-13.19,3.34-.45,6.78-.87,10.46-1.29-.87,4.41-2.29,8.58-4.23,12.51Zm15.35,71.66c-1.1-.17-2.19-.33-3.29-.51-.26-.04-1.06-.18-1.52-.27,1.48-2.77,3.58-5.56,6.32-8.36.81-.83,1.6-1.6,2.36-2.31,1.87.26,3.73.51,5.6.74l.32.28c-4.52,3.43-7.78,6.9-9.8,10.43Zm45.81-110.2c-3.69-.35-7.22-.61-10.01-.81l-.69-.57c6.48-4.5,12.82-7.72,19.02-9.64,2.14.3,4.24.62,6.24.98l.82.9.06.67-.05.08c-.34-.35-.67-.71-1.04-1.03-4.96,1.74-9.74,4.88-14.34,9.4Zm38.76,29.73c-2.56.38-5.39.72-8.74,1.06-4.51.45-9.29.88-15.49,1.39h-.01c2.18-4.07,3.81-8.21,4.91-12.41,5.35-.44,11.01-.95,16.65-1.68,2.2-.29,4.35-.63,6.42-1.01-.17,4.46-1.41,8.68-3.73,12.65Z"/>
    </clipPath>
  </defs>
  <circle class="cls-4" cx="147.01" cy="125.55" r="104.1"/>
  <g>
    <g class="cls-8">
      <path class="cls-3" d="m101.27,39.84c.02,4.06.32,7.8,2.88,11.12,2.19,2.84,5.37,4.76,8.62,6.16,9.14,3.94,19.57,4.87,29.38,5.68,12.34,1.02,24.72,1.35,37.07,2.19,11.68.8,23.55,1.85,34.86,5.03,6.88,1.93,13.34,5,19.59,8.43,2.87,1.57,5.69,3.23,8.47,4.96,1.09.68,2.05,1.23,2.89,2.21s1.71,2.13,1.87,3.45l-.03-.68v.22c.01-3.11.02-6.21.03-9.32-.16,1.51-1.77,2.17-3.01,2.62-1.97.71-3.99,1.3-6.02,1.81-3.92.99-7.92,1.66-11.93,2.19-8.2,1.07-16.47,1.68-24.7,2.33-16.7,1.32-33.42,2.33-50.11,3.79s-33.06,3.34-49.38,6.41c-8.22,1.55-16.39,3.4-24.46,5.63-7.5,2.07-14.99,4.41-21.95,7.91-5.82,2.93-13.38,7.14-15.29,13.9-.64,2.26-.41,4.74-.42,7.05,0,2.64-.34,5.64.46,8.23.98,3.15,3.48,5.58,6.09,7.46,6.33,4.56,13.98,7.3,21.36,9.64,8,2.54,16.12,4.74,24.26,6.79s16.53,3.96,24.85,5.73,16.07,3.41,24.17,4.75c14,2.3,28.13,3.45,42.25,4.68,10.7.94,21.78,1.66,32.11,4.85,7.01,2.17,13.95,6.06,16.21,13.52.27.88.47,1.78.61,2.69.07.44.12.89.16,1.34.06.65.07,2.63.06-.11,0,.75-.03,1.55.03,2.3.05.63.04-.78.04-.5.04-2.28.03-4.56.02-6.84-.02-3.62-.11-7.2-1.54-10.58-1.07-2.53-2.78-4.73-4.89-6.47-5.12-4.22-11.99-5.98-18.37-7.21-9.02-1.74-18.23-2.44-27.37-3.23-11.14-.96-22.28-1.92-33.36-3.51-12.84-1.84-25.56-4.6-38.21-7.42s-26.37-6.23-39.31-10.22c-5.97-1.84-11.9-3.9-17.45-6.79-4.58-2.39-10.09-5.57-11.73-10.84-.19-.6-.28-1.2-.37-1.81,1.6,10.92-.47,10.57.11,7.42.04-.24.1-.48.16-.71.34-1.32.96-2.55,1.72-3.68,1.51-2.26,3.58-4.12,5.77-5.7,4.98-3.59,10.61-6.23,16.35-8.36,12-4.46,24.67-7.36,37.23-9.75s26.22-4.2,39.42-5.54c26.35-2.67,52.84-3.76,79.19-6.41,6.5-.66,13.01-1.49,19.33-3.19,1.5-.4,2.99-.85,4.46-1.36,1.17-.41,2.76-.89,3.3-2.15.18-.42.17-.86.18-1.31.04-1.88.03-3.76.02-5.65,0-1.57.29-3.45-.33-4.96-.9-2.17-2.51-3.37-4.39-4.54-4.02-2.52-8.14-4.88-12.36-7.04-7.68-3.93-15.55-6.7-24.02-8.33-7.89-1.52-15.9-2.32-23.91-2.92-16.32-1.21-32.77-1.29-49.02-3.32-6.41-.8-12.94-1.88-18.98-4.26-4.32-1.7-8.69-4.25-10.98-8.45-.51-.93-.9-1.93-1.17-2.96-.14-.52-.24-1.05-.32-1.59-.13-.9-.14-3.39-.12.18,0-.75.03-1.55-.03-2.3-.05-.63-.04.78-.04.5-.04,2.28-.03,4.56-.02,6.84h0Z"/>
    </g>
    <g class="cls-5">
      <path class="cls-3" d="m101.27,39.84c.02,4.06.32,7.8,2.88,11.12,2.19,2.84,5.37,4.76,8.62,6.16,9.14,3.94,19.57,4.87,29.38,5.68,12.34,1.02,24.72,1.35,37.07,2.19,11.68.8,23.55,1.85,34.86,5.03,6.88,1.93,13.34,5,19.59,8.43,2.87,1.57,5.69,3.23,8.47,4.96,1.09.68,2.05,1.23,2.89,2.21s1.71,2.13,1.87,3.45l-.03-.68v.22c.01-3.11.02-6.21.03-9.32-.16,1.51-1.77,2.17-3.01,2.62-1.97.71-3.99,1.3-6.02,1.81-3.92.99-7.92,1.66-11.93,2.19-8.2,1.07-16.47,1.68-24.7,2.33-16.7,1.32-33.42,2.33-50.11,3.79s-33.06,3.34-49.38,6.41c-8.22,1.55-16.39,3.4-24.46,5.63-7.5,2.07-14.99,4.41-21.95,7.91-5.82,2.93-13.38,7.14-15.29,13.9-.64,2.26-.41,4.74-.42,7.05,0,2.64-.34,5.64.46,8.23.98,3.15,3.48,5.58,6.09,7.46,6.33,4.56,13.98,7.3,21.36,9.64,8,2.54,16.12,4.74,24.26,6.79s16.53,3.96,24.85,5.73,16.07,3.41,24.17,4.75c14,2.3,28.13,3.45,42.25,4.68,10.7.94,21.78,1.66,32.11,4.85,7.01,2.17,13.95,6.06,16.21,13.52.27.88.47,1.78.61,2.69.07.44.12.89.16,1.34.06.65.07,2.63.06-.11,0,.75-.03,1.55.03,2.3.05.63.04-.78.04-.5.04-2.28.03-4.56.02-6.84-.02-3.62-.11-7.2-1.54-10.58-1.07-2.53-2.78-4.73-4.89-6.47-5.12-4.22-11.99-5.98-18.37-7.21-9.02-1.74-18.23-2.44-27.37-3.23-11.14-.96-22.28-1.92-33.36-3.51-12.84-1.84-25.56-4.6-38.21-7.42s-26.37-6.23-39.31-10.22c-5.97-1.84-11.9-3.9-17.45-6.79-4.58-2.39-10.09-5.57-11.73-10.84-.19-.6-.28-1.2-.37-1.81,1.6,10.92-.47,10.57.11,7.42.04-.24.1-.48.16-.71.34-1.32.96-2.55,1.72-3.68,1.51-2.26,3.58-4.12,5.77-5.7,4.98-3.59,10.61-6.23,16.35-8.36,12-4.46,24.67-7.36,37.23-9.75s26.22-4.2,39.42-5.54c26.35-2.67,52.84-3.76,79.19-6.41,6.5-.66,13.01-1.49,19.33-3.19,1.5-.4,2.99-.85,4.46-1.36,1.17-.41,2.76-.89,3.3-2.15.18-.42.17-.86.18-1.31.04-1.88.03-3.76.02-5.65,0-1.57.29-3.45-.33-4.96-.9-2.17-2.51-3.37-4.39-4.54-4.02-2.52-8.14-4.88-12.36-7.04-7.68-3.93-15.55-6.7-24.02-8.33-7.89-1.52-15.9-2.32-23.91-2.92-16.32-1.21-32.77-1.29-49.02-3.32-6.41-.8-12.94-1.88-18.98-4.26-4.32-1.7-8.69-4.25-10.98-8.45-.51-.93-.9-1.93-1.17-2.96-.14-.52-.24-1.05-.32-1.59-.13-.9-.14-3.39-.12.18,0-.75.03-1.55-.03-2.3-.05-.63-.04.78-.04.5-.04,2.28-.03,4.56-.02,6.84h0Z"/>
    </g>
    <g class="cls-1">
      <path class="cls-3" d="m101.27,39.84c.02,4.06.32,7.8,2.88,11.12,2.19,2.84,5.37,4.76,8.62,6.16,9.14,3.94,19.57,4.87,29.38,5.68,12.34,1.02,24.72,1.35,37.07,2.19,11.68.8,23.55,1.85,34.86,5.03,6.88,1.93,13.34,5,19.59,8.43,2.87,1.57,5.69,3.23,8.47,4.96,1.09.68,2.05,1.23,2.89,2.21s1.71,2.13,1.87,3.45l-.03-.68v.22c.01-3.11.02-6.21.03-9.32-.16,1.51-1.77,2.17-3.01,2.62-1.97.71-3.99,1.3-6.02,1.81-3.92.99-7.92,1.66-11.93,2.19-8.2,1.07-16.47,1.68-24.7,2.33-16.7,1.32-33.42,2.33-50.11,3.79s-33.06,3.34-49.38,6.41c-8.22,1.55-16.39,3.4-24.46,5.63-7.5,2.07-14.99,4.41-21.95,7.91-5.82,2.93-13.38,7.14-15.29,13.9-.64,2.26-.41,4.74-.42,7.05,0,2.64-.34,5.64.46,8.23.98,3.15,3.48,5.58,6.09,7.46,6.33,4.56,13.98,7.3,21.36,9.64,8,2.54,16.12,4.74,24.26,6.79s16.53,3.96,24.85,5.73,16.07,3.41,24.17,4.75c14,2.3,28.13,3.45,42.25,4.68,10.7.94,21.78,1.66,32.11,4.85,7.01,2.17,13.95,6.06,16.21,13.52.27.88.47,1.78.61,2.69.07.44.12.89.16,1.34.06.65.07,2.63.06-.11,0,.75-.03,1.55.03,2.3.05.63.04-.78.04-.5.04-2.28.03-4.56.02-6.84-.02-3.62-.11-7.2-1.54-10.58-1.07-2.53-2.78-4.73-4.89-6.47-5.12-4.22-11.99-5.98-18.37-7.21-9.02-1.74-18.23-2.44-27.37-3.23-11.14-.96-22.28-1.92-33.36-3.51-12.84-1.84-25.56-4.6-38.21-7.42s-26.37-6.23-39.31-10.22c-5.97-1.84-11.9-3.9-17.45-6.79-4.58-2.39-10.09-5.57-11.73-10.84-.19-.6-.28-1.2-.37-1.81,1.6,10.92-.47,10.57.11,7.42.04-.24.1-.48.16-.71.34-1.32.96-2.55,1.72-3.68,1.51-2.26,3.58-4.12,5.77-5.7,4.98-3.59,10.61-6.23,16.35-8.36,12-4.46,24.67-7.36,37.23-9.75s26.22-4.2,39.42-5.54c26.35-2.67,52.84-3.76,79.19-6.41,6.5-.66,13.01-1.49,19.33-3.19,1.5-.4,2.99-.85,4.46-1.36,1.17-.41,2.76-.89,3.3-2.15.18-.42.17-.86.18-1.31.04-1.88.03-3.76.02-5.65,0-1.57.29-3.45-.33-4.96-.9-2.17-2.51-3.37-4.39-4.54-4.02-2.52-8.14-4.88-12.36-7.04-7.68-3.93-15.55-6.7-24.02-8.33-7.89-1.52-15.9-2.32-23.91-2.92-16.32-1.21-32.77-1.29-49.02-3.32-6.41-.8-12.94-1.88-18.98-4.26-4.32-1.7-8.69-4.25-10.98-8.45-.51-.93-.9-1.93-1.17-2.96-.14-.52-.24-1.05-.32-1.59-.13-.9-.14-3.39-.12.18,0-.75.03-1.55-.03-2.3-.05-.63-.04.78-.04.5-.04,2.28-.03,4.56-.02,6.84h0Z"/>
    </g>
    <g class="cls-9">
      <path class="cls-3" d="m101.27,39.84c.02,4.06.32,7.8,2.88,11.12,2.19,2.84,5.37,4.76,8.62,6.16,9.14,3.94,19.57,4.87,29.38,5.68,12.34,1.02,24.72,1.35,37.07,2.19,11.68.8,23.55,1.85,34.86,5.03,6.88,1.93,13.34,5,19.59,8.43,2.87,1.57,5.69,3.23,8.47,4.96,1.09.68,2.05,1.23,2.89,2.21s1.71,2.13,1.87,3.45l-.03-.68v.22c.01-3.11.02-6.21.03-9.32-.16,1.51-1.77,2.17-3.01,2.62-1.97.71-3.99,1.3-6.02,1.81-3.92.99-7.92,1.66-11.93,2.19-8.2,1.07-16.47,1.68-24.7,2.33-16.7,1.32-33.42,2.33-50.11,3.79s-33.06,3.34-49.38,6.41c-8.22,1.55-16.39,3.4-24.46,5.63-7.5,2.07-14.99,4.41-21.95,7.91-5.82,2.93-13.38,7.14-15.29,13.9-.64,2.26-.41,4.74-.42,7.05,0,2.64-.34,5.64.46,8.23.98,3.15,3.48,5.58,6.09,7.46,6.33,4.56,13.98,7.3,21.36,9.64,8,2.54,16.12,4.74,24.26,6.79s16.53,3.96,24.85,5.73,16.07,3.41,24.17,4.75c14,2.3,28.13,3.45,42.25,4.68,10.7.94,21.78,1.66,32.11,4.85,7.01,2.17,13.95,6.06,16.21,13.52.27.88.47,1.78.61,2.69.07.44.12.89.16,1.34.06.65.07,2.63.06-.11,0,.75-.03,1.55.03,2.3.05.63.04-.78.04-.5.04-2.28.03-4.56.02-6.84-.02-3.62-.11-7.2-1.54-10.58-1.07-2.53-2.78-4.73-4.89-6.47-5.12-4.22-11.99-5.98-18.37-7.21-9.02-1.74-18.23-2.44-27.37-3.23-11.14-.96-22.28-1.92-33.36-3.51-12.84-1.84-25.56-4.6-38.21-7.42s-26.37-6.23-39.31-10.22c-5.97-1.84-11.9-3.9-17.45-6.79-4.58-2.39-10.09-5.57-11.73-10.84-.19-.6-.28-1.2-.37-1.81,1.6,10.92-.47,10.57.11,7.42.04-.24.1-.48.16-.71.34-1.32.96-2.55,1.72-3.68,1.51-2.26,3.58-4.12,5.77-5.7,4.98-3.59,10.61-6.23,16.35-8.36,12-4.46,24.67-7.36,37.23-9.75s26.22-4.2,39.42-5.54c26.35-2.67,52.84-3.76,79.19-6.41,6.5-.66,13.01-1.49,19.33-3.19,1.5-.4,2.99-.85,4.46-1.36,1.17-.41,2.76-.89,3.3-2.15.18-.42.17-.86.18-1.31.04-1.88.03-3.76.02-5.65,0-1.57.29-3.45-.33-4.96-.9-2.17-2.51-3.37-4.39-4.54-4.02-2.52-8.14-4.88-12.36-7.04-7.68-3.93-15.55-6.7-24.02-8.33-7.89-1.52-15.9-2.32-23.91-2.92-16.32-1.21-32.77-1.29-49.02-3.32-6.41-.8-12.94-1.88-18.98-4.26-4.32-1.7-8.69-4.25-10.98-8.45-.51-.93-.9-1.93-1.17-2.96-.14-.52-.24-1.05-.32-1.59-.13-.9-.14-3.39-.12.18,0-.75.03-1.55-.03-2.3-.05-.63-.04.78-.04.5-.04,2.28-.03,4.56-.02,6.84h0Z"/>
    </g>
    <text class="cls-7" transform="translate(11.79 199.98)"><tspan x="0" y="0">B</tspan></text>
    <g class="cls-6">
      <path class="cls-3" d="m101.27,39.84c.02,4.06.32,7.8,2.88,11.12,2.19,2.84,5.37,4.76,8.62,6.16,9.14,3.94,19.57,4.87,29.38,5.68,12.34,1.02,24.72,1.35,37.07,2.19,11.68.8,23.55,1.85,34.86,5.03,6.88,1.93,13.34,5,19.59,8.43,2.87,1.57,5.69,3.23,8.47,4.96,1.09.68,2.05,1.23,2.89,2.21s1.71,2.13,1.87,3.45l-.03-.68v.22c.01-3.11.02-6.21.03-9.32-.16,1.51-1.77,2.17-3.01,2.62-1.97.71-3.99,1.3-6.02,1.81-3.92.99-7.92,1.66-11.93,2.19-8.2,1.07-16.47,1.68-24.7,2.33-16.7,1.32-33.42,2.33-50.11,3.79s-33.06,3.34-49.38,6.41c-8.22,1.55-16.39,3.4-24.46,5.63-7.5,2.07-14.99,4.41-21.95,7.91-5.82,2.93-13.38,7.14-15.29,13.9-.64,2.26-.41,4.74-.42,7.05,0,2.64-.34,5.64.46,8.23.98,3.15,3.48,5.58,6.09,7.46,6.33,4.56,13.98,7.3,21.36,9.64,8,2.54,16.12,4.74,24.26,6.79s16.53,3.96,24.85,5.73,16.07,3.41,24.17,4.75c14,2.3,28.13,3.45,42.25,4.68,10.7.94,21.78,1.66,32.11,4.85,7.01,2.17,13.95,6.06,16.21,13.52.27.88.47,1.78.61,2.69.07.44.12.89.16,1.34.06.65.07,2.63.06-.11,0,.75-.03,1.55.03,2.3.05.63.04-.78.04-.5.04-2.28.03-4.56.02-6.84-.02-3.62-.11-7.2-1.54-10.58-1.07-2.53-2.78-4.73-4.89-6.47-5.12-4.22-11.99-5.98-18.37-7.21-9.02-1.74-18.23-2.44-27.37-3.23-11.14-.96-22.28-1.92-33.36-3.51-12.84-1.84-25.56-4.6-38.21-7.42s-26.37-6.23-39.31-10.22c-5.97-1.84-11.9-3.9-17.45-6.79-4.58-2.39-10.09-5.57-11.73-10.84-.19-.6-.28-1.2-.37-1.81,1.6,10.92-.47,10.57.11,7.42.04-.24.1-.48.16-.71.34-1.32.96-2.55,1.72-3.68,1.51-2.26,3.58-4.12,5.77-5.7,4.98-3.59,10.61-6.23,16.35-8.36,12-4.46,24.67-7.36,37.23-9.75s26.22-4.2,39.42-5.54c26.35-2.67,52.84-3.76,79.19-6.41,6.5-.66,13.01-1.49,19.33-3.19,1.5-.4,2.99-.85,4.46-1.36,1.17-.41,2.76-.89,3.3-2.15.18-.42.17-.86.18-1.31.04-1.88.03-3.76.02-5.65,0-1.57.29-3.45-.33-4.96-.9-2.17-2.51-3.37-4.39-4.54-4.02-2.52-8.14-4.88-12.36-7.04-7.68-3.93-15.55-6.7-24.02-8.33-7.89-1.52-15.9-2.32-23.91-2.92-16.32-1.21-32.77-1.29-49.02-3.32-6.41-.8-12.94-1.88-18.98-4.26-4.32-1.7-8.69-4.25-10.98-8.45-.51-.93-.9-1.93-1.17-2.96-.14-.52-.24-1.05-.32-1.59-.13-.9-.14-3.39-.12.18,0-.75.03-1.55-.03-2.3-.05-.63-.04.78-.04.5-.04,2.28-.03,4.56-.02,6.84h0Z"/>
    </g>
  </g>
</svg>