<?xml version="1.0" encoding="utf-8"?>
<!-- Generator: Adobe Illustrator 27.8.1, SVG Export Plug-In . SVG Version: 6.00 Build 0)  -->
<svg version="1.1" id="Layer_1" xmlns="http://www.w3.org/2000/svg" xmlns:xlink="http://www.w3.org/1999/xlink" x="0px" y="0px"
	 viewBox="0 0 1000 1000" style="enable-background:new 0 0 1000 1000;" xml:space="preserve">
<style type="text/css">
	.st0{fill:#F4FDFF;stroke:#000000;stroke-miterlimit:10;}
</style>
<g>
	<path class="st0" d="M799.5,352.1H200.5c-52,0-94.1-42.1-94.1-94.1l0,0c0-52,42.2-94.1,94.1-94.1h599.1c52,0,94.1,42.2,94.1,94.1
		l0,0C893.7,310,851.5,352.1,799.5,352.1z"/>
	<path class="st0" d="M799.5,594.1H200.5c-52,0-94.1-42.2-94.1-94.1l0,0c0-52,42.2-94.1,94.1-94.1h599.1c52,0,94.1,42.1,94.1,94.1
		l0,0C893.7,552,851.5,594.1,799.5,594.1z"/>
	<path class="st0" d="M799.5,836.1H200.5c-52,0-94.1-42.2-94.1-94.1l0,0c0-52,42.2-94.1,94.1-94.1h599.1c52,0,94.1,42.2,94.1,94.1
		l0,0C893.7,794,851.5,836.1,799.5,836.1z"/>
</g>
</svg>
