<?xml version="1.0" encoding="utf-8"?>
<!-- Generator: Adobe Illustrator 27.8.1, SVG Export Plug-In . SVG Version: 6.00 Build 0)  -->
<svg version="1.1" id="Layer_2" xmlns="http://www.w3.org/2000/svg" xmlns:xlink="http://www.w3.org/1999/xlink" x="0px" y="0px"
	 viewBox="0 0 200 200" style="enable-background:new 0 0 200 200;" xml:space="preserve">
<style type="text/css">
	.st0{fill:none;}
	.st1{fill:#1D1D1B;}
	.st2{fill:#FFFFFF;}
</style>
<path class="st0" d="M101.1,186c0.5,0,1.1,0,1.6,0 M97.3,14.1c0.9,0,1.8,0,2.7,0s1.8,0,2.7,0"/>
<g>
	<path class="st1" d="M186,98.5h-27.1c-0.6-6.9-3.1-25.9-11.1-44.2h25.1C181,67.2,185.7,82.3,186,98.5z"/>
	<path class="st1" d="M97.3,185.5v0.4c-28.5-0.9-53.4-15.6-68.4-37.6h26.6C69.1,177.1,90,184,97.3,185.5z"/>
	<path class="st1" d="M171.1,148.4c-15,22-40,36.7-68.4,37.6v-0.1c7.4-0.8,28.7-6,43.5-37.5H171.1z"/>
	<path class="st1" d="M185.9,103.9c-0.6,14.2-4.7,27.5-11.4,39.1h-25.9c4.2-10.3,7.8-23.2,10.1-39.1H185.9z"/>
	<path class="st1" d="M53.1,143H25.5c-6.7-11.6-10.8-24.9-11.4-39.1h29.8C45.6,119.8,48.9,132.7,53.1,143z"/>
	<path class="st1" d="M53.6,54.4c-4.9,11.3-8.6,25.7-9.8,44.2H14c0.3-16.2,5-31.3,13.1-44.2H53.6z"/>
	<path class="st1" d="M97.3,14.1v0.4c-7.3,1.6-27.6,8.3-41.1,34.6H30.8C45.9,28.5,70,14.9,97.3,14.1z"/>
	<path class="st1" d="M169.2,49h-24c-8.3-16.4-21.6-31.3-42.6-34.7v-0.3C130,14.9,154.1,28.5,169.2,49z"/>
	<path class="st2" d="M185.9,103.9c0.1-1.3,0.1-2.6,0.1-3.9c0-0.5,0-1,0-1.5h-27.1c-0.6-6.9-3.1-25.9-11.1-44.2h25.1
		c-1.1-1.8-2.4-3.6-3.7-5.3h-24c-8.3-16.4-21.6-31.3-42.6-34.7c-0.9-0.1-1.8-0.3-2.7-0.4c0,0-1,0.1-2.7,0.5
		c-7.3,1.6-27.6,8.3-41.1,34.6H30.8c-1.3,1.7-2.5,3.5-3.7,5.3h26.5c-4.9,11.3-8.6,25.7-9.8,44.2H14c0,0.5,0,1,0,1.5
		c0,1.3,0,2.6,0.1,3.9h29.8c1.6,15.9,4.9,28.8,9.1,39.1H25.5c1.1,1.8,2.2,3.6,3.4,5.3h26.6C69.1,177.1,90,184,97.3,185.5
		c1.7,0.4,2.7,0.4,2.7,0.4s0.2,0,0.7,0c0.1,0,0.2,0,0.4,0c0.4,0,1-0.1,1.6-0.1c7.4-0.8,28.7-6,43.5-37.5h24.9
		c1.2-1.7,2.3-3.5,3.4-5.3h-25.9c4.2-10.3,7.8-23.2,10.1-39.1H185.9z M97.3,182.6c-6.4-1.6-23.3-8.2-35-34.3h35V182.6z M97.3,143
		H60.2c-3.9-10.2-6.9-23-8.4-39.1h45.6V143z M97.3,98.5H51.6c2-18.5,5.8-32.9,10.5-44.2h35.2V98.5z M97.3,49H64.6
		c11.5-23.6,26.7-30.8,32.7-32.8V49z M102.7,16.3c15.7,4.9,26.4,18.1,33.7,32.7h-33.7V16.3z M102.7,182.9v-34.6h36.1
		C126.4,176.7,109.3,181.9,102.7,182.9z M141,143h-38.3v-39.1h47.6C148.2,120,144.9,132.8,141,143z M102.7,98.5V54.4h36.1
		c8.1,18.6,10.9,38,11.7,44.2H102.7z"/>
	<path class="st1" d="M97.3,103.9V143H60.2c-3.9-10.2-6.9-23-8.4-39.1H97.3z"/>
	<path class="st1" d="M97.3,54.4v44.2H51.6c2-18.5,5.8-32.9,10.5-44.2H97.3z"/>
	<path class="st1" d="M97.3,16.3V49H64.6C76.1,25.4,91.3,18.2,97.3,16.3z"/>
	<path class="st1" d="M136.4,49h-33.7V16.3C118.4,21.2,129.1,34.5,136.4,49z"/>
	<path class="st1" d="M150.5,98.5h-47.8V54.4h36.1C146.9,73,149.7,92.4,150.5,98.5z"/>
	<path class="st1" d="M97.3,148.4v34.3c-6.4-1.6-23.3-8.2-35-34.3H97.3z"/>
	<path class="st1" d="M138.8,148.4c-12.4,28.3-29.5,33.6-36.1,34.6v-34.6H138.8z"/>
	<path class="st1" d="M150.3,103.9c-2.1,16.1-5.4,28.9-9.3,39.1h-38.3v-39.1H150.3z"/>
</g>
</svg>
