<?xml version="1.0" encoding="UTF-8"?>
<svg id="Layer_3" data-name="Layer 3" xmlns="http://www.w3.org/2000/svg" xmlns:xlink="http://www.w3.org/1999/xlink" viewBox="0 0 200 200">
  <defs>
    <style>
      .cls-1 {
        letter-spacing: .4em;
      }

      .cls-2 {
        letter-spacing: .41em;
      }

      .cls-3 {
        fill: url(#radial-gradient);
      }

      .cls-3, .cls-4, .cls-5 {
        stroke-width: 0px;
      }

      .cls-6 {
        letter-spacing: .41em;
      }

      .cls-7 {
        font-family: MinionVariableConcept-Roman, 'Minion Variable Concept';
        font-size: 33.56px;
        font-variation-settings: 'wght' 400, 'opsz' 11;
      }

      .cls-8 {
        letter-spacing: .4em;
      }

      .cls-4 {
        fill: #1d1d1b;
      }

      .cls-5 {
        fill: #f9b233;
      }
    </style>
    <radialGradient id="radial-gradient" cx="101.13" cy="74.62" fx="101.13" fy="74.62" r="52.27" gradientUnits="userSpaceOnUse">
      <stop offset="0" stop-color="#ffef26"/>
      <stop offset=".02" stop-color="#fee921"/>
      <stop offset=".1" stop-color="#fdd70e"/>
      <stop offset=".19" stop-color="#fdcb03"/>
      <stop offset=".28" stop-color="#fdc800"/>
      <stop offset=".67" stop-color="#f18f34"/>
      <stop offset=".89" stop-color="#e95f32"/>
      <stop offset="1" stop-color="#e3312d"/>
    </radialGradient>
  </defs>
  <text class="cls-7" transform="translate(3.66 158.94) scale(.92 1)"><tspan class="cls-2" x="0" y="0">T</tspan><tspan class="cls-1" x="34.86" y="0">E</tspan><tspan class="cls-6" x="68.05" y="0">M</tspan><tspan class="cls-8" x="112.11" y="0">PLE</tspan></text>
  <g>
    <path class="cls-4" d="m165.13,120.37h-24.28v-20c0-1.14.93-2.07,2.07-2.07h2.87v-4.93h-4.94v-5.05h5.71c.14,0,.27,0,.39-.03,2.55-.25,4.55-2.4,4.55-5.03h-30.84v-4.15c0-1.87,1.44-3.4,3.3-3.52.12-.02.24-.02.36-.02h11.79v-5.27h-15.45v-3.67c0-1.87,1.44-3.4,3.3-3.52.12-.02.24-.02.36-.02h10.35c.14,0,.25,0,.39-.03,2.57-.25,4.57-2.41,4.57-5.03H60.13c0,1.39.56,2.65,1.48,3.57.83.83,1.94,1.38,3.18,1.46.17.02.36.03.53.03h10.84c1.67,0,3.01,1.34,3.01,3.01v4.2h-14.85v5.27h11.84c1.67,0,3.01,1.34,3.01,3.01v4.67h-30.15c0,1.39.56,2.67,1.48,3.59.83.83,1.95,1.36,3.19,1.44.17.02.34.03.51.03h6.9v5.05h-6.75v4.93h4.66c1.16,0,2.09.93,2.09,2.09v19.98h-26.24c-1.29,0-2.46.53-3.3,1.38-.85.85-1.38,2.02-1.38,3.31h139.63c0-2.58-2.11-4.69-4.69-4.69Zm-85.97,0h-12.73v-22.07h9.79c1.61,0,2.94,1.33,2.94,2.94v19.13Zm0-27h-12.73v-5.05h10.52c1.22,0,2.21.99,2.21,2.21v2.84Zm5.06-30.26h13.03v7.21h-13.03v-7.21Zm31.37,57.27h-31.37v-44.79h31.37v44.79Zm0-50.06h-13.02v-7.21h13.02v7.21Zm19.8,50.06h-14.73v-18.86c0-1.77,1.44-3.21,3.21-3.21h11.52v22.07Zm0-27.58h-14.73v-1.99c0-.51.15-.99.42-1.39.44-.66,1.19-1.09,2.04-1.09h12.27v4.47Z"/>
    <path class="cls-5" d="m79.16,90.53v2.84h-12.73v-5.05h10.52c1.22,0,2.21.99,2.21,2.21Z"/>
    <path class="cls-5" d="m79.16,101.24v19.13h-12.73v-22.07h9.79c1.61,0,2.94,1.33,2.94,2.94Z"/>
    <rect class="cls-5" x="84.22" y="63.1" width="13.03" height="7.21"/>
    <rect class="cls-5" x="102.58" y="63.1" width="13.02" height="7.21"/>
    <rect class="cls-5" x="84.22" y="75.58" width="31.37" height="44.79"/>
    <path class="cls-3" d="m159.2,86.42c0,12.69-4.15,24.44-11.18,33.95h-7.05v-20c0-1.14.93-2.07,2.07-2.07h2.87v-4.93h-4.94v-5.05h5.59c2.79,0,5.06-2.26,5.06-5.06h-30.84v-4.15c0-1.95,1.58-3.53,3.53-3.53h11.91v-5.27h-15.45v-3.67c0-1.95,1.58-3.53,3.53-3.53h10.35c2.8,0,5.08-2.28,5.08-5.06H60.25c0,1.39.56,2.65,1.48,3.57.92.92,2.18,1.5,3.59,1.5h10.96c1.67,0,3.01,1.34,3.01,3.01v4.2h-14.85v5.27h11.84c1.67,0,3.01,1.34,3.01,3.01v4.67h-30.15c0,1.39.56,2.67,1.48,3.59.92.92,2.19,1.48,3.59,1.48h7.02v5.05h-6.75v4.93h4.66c1.16,0,2.09.93,2.09,2.09v19.98h-6.97c-7.04-9.52-11.2-21.26-11.2-33.95,0-31.78,26-57.54,58.07-57.54s58.08,25.76,58.08,57.54Z"/>
    <path class="cls-5" d="m135.39,98.3v22.07h-14.73v-18.86c0-1.77,1.44-3.21,3.21-3.21h11.52Z"/>
    <path class="cls-5" d="m122.12,88.32h13.27v4.47h-14.7v-3.03c0-.79.64-1.43,1.43-1.43Z"/>
  </g>
</svg>