<?xml version="1.0" encoding="utf-8"?>
<!-- Generator: Adobe Illustrator 27.8.1, SVG Export Plug-In . SVG Version: 6.00 Build 0)  -->
<svg version="1.1" id="Layer_2" xmlns="http://www.w3.org/2000/svg" xmlns:xlink="http://www.w3.org/1999/xlink" x="0px" y="0px"
	 viewBox="0 0 200 200" style="enable-background:new 0 0 200 200;" xml:space="preserve">
<style type="text/css">
	.st0{fill:#1D1D1B;}
	.st1{fill:none;stroke:#1D1D1B;stroke-width:5;stroke-miterlimit:10;}
</style>
<path class="st0" d="M144.8,102.7l-0.3-0.3c-0.5-0.5-1.2-0.5-1.7,0l-41.5,41.3c-0.1,0.1-0.1,0-0.1-0.1l0.1-91.8
	c-0.8,0-1.6-0.1-2.4-0.1v91.8c0,0.1-0.1,0.1-0.1,0.1l-41.7-41.1c-0.5-0.5-1.3-0.5-1.7,0l-0.1,0.1c-0.4,0.5-0.4,1.2,0,1.7l43.8,43.3
	c0.5,0.5,1.2,0.5,1.7,0l44-43.4C145.2,104,145.2,103.2,144.8,102.7z"/>
<rect x="31.1" y="32.2" transform="matrix(0.7071 -0.7071 0.7071 0.7071 -41.4214 100)" class="st1" width="137.9" height="135.5"/>
</svg>
