<?xml version="1.0" encoding="utf-8"?>
<!-- Generator: Adobe Illustrator 27.8.1, SVG Export Plug-In . SVG Version: 6.00 Build 0)  -->
<svg version="1.1" xmlns="http://www.w3.org/2000/svg" xmlns:xlink="http://www.w3.org/1999/xlink" x="0px" y="0px"
	 viewBox="0 0 490.5 486.8" style="enable-background:new 0 0 490.5 486.8;" xml:space="preserve">
<style type="text/css">
	.st0{fill:none;}
	.st1{fill:#FF0000;}
	.st2{fill:url(#SVGID_1_);}
	.st3{display:none;}
	.st4{display:inline;fill:#1D1D1B;}
</style>
<g id="Lager_4">
</g>
<g id="Layer_5">
</g>
<g id="Lager_2">
	<path class="st0" d="M174.8,206.3h-28c-4.5,0-7.5-4.7-5.6-8.8l14.4-31c2.2-4.8,9.1-4.8,11.3,0.1l13.7,31
		C182.3,201.7,179.3,206.3,174.8,206.3z"/>
	<path class="st0" d="M174.8,206.3h-28c-4.5,0-7.5-4.7-5.6-8.8l14.4-31c2.2-4.8,9.1-4.8,11.3,0.1l13.7,31
		C182.3,201.7,179.3,206.3,174.8,206.3z"/>
	<g>
		<path class="st1" d="M378.7,132.7L264.3,208c-6.9,4.5-16.3,2-19.9-5.4l-43.1-95.7c-4.2-8.4-12.8-13.8-22.2-13.8h-23.6
			c-9.4,0-18,4.9-26.2,12.8c-1.3,1.3-2.5,2.8-3.3,4.5L53.4,256.1c-3,6.1-2.1,13.5,2.7,18.3c2.3,2.3,5.3,3.9,8.8,3.9h30.8
			c6.5,0,12.3-3.9,14.7-9.9l4-9.9c2.9-7.3,10-12,17.8-12H192c6.1,0,11.6,3.5,14.2,9c1.4,3,4.3,4.6,7.3,4.6c1.7,0,3.4-0.5,4.9-1.7
			l161.8-123.6C381.5,133.8,380.1,131.8,378.7,132.7z M174.8,206.3h-28c-4.5,0-7.5-4.7-5.6-8.8l14.4-31c2.2-4.8,9.1-4.8,11.3,0.1
			l13.7,31C182.3,201.7,179.3,206.3,174.8,206.3z"/>
		<linearGradient id="SVGID_1_" gradientUnits="userSpaceOnUse" x1="116.6282" y1="304.9829" x2="411.8987" y2="304.9829">
			<stop  offset="0" style="stop-color:#FFFFFF"/>
			<stop  offset="1" style="stop-color:#FFFFFF"/>
		</linearGradient>
		<path class="st2" d="M385,382.9c-19.5,13.3-70.7,22.3-105.2,11.9c-21.2-6.4-38.2-14.8-48.1-20.4c-5-2.8-5.9-9.5-1.9-13.6l12.8-13
			c7.1-7.2,18-9.1,27.2-4.7c11.7,5.7,28.8,12.5,45.3,13.9c29.1,2.4,33.6-10.4,33.6-10.4s9.7-10-26.1-18.3c-31-7.2-50.3-9-70.6-22.9
			c-7-4.8-12.7-11.3-16.1-19.1c0-0.1-0.1-0.1-0.1-0.2c-0.9-2.2-3.5-3-5.5-1.7l-110.6,71.7c-2,1.3-4-1.6-2.2-3l177.9-138.3
			c4.2-3.3,9.6-4.7,14.9-4c6.3,0.9,15.1,2.1,23.3,3.2c18.7,2.5,37.1,7,54.8,13.5c8,3,18.6,5.8,18.2,7c-0.8,2.4-18.2,17.4-26.8,27
			c-4,4.5-10.5,5.9-15.9,3.4c-10.9-5-29-12-34.6-12.1c-0.3,0-0.6,0-0.9-0.1c-2.8-0.4-19.3-2.5-26.4,1c-7.8,3.8-15.8,10.3-3.2,19.5
			c0.2,0.2,0.5,0.3,0.7,0.4c2.7,1,19.8,7.4,32.9,8.9c14.2,1.7,42.7,12.1,42.7,12.1s28.1,9,35,29.9
			C416.9,345.4,404.4,369.6,385,382.9z"/>
	</g>
</g>
<g id="Lager_3" class="st3">
</g>
<g id="Lager_1" class="st3">
	
		<image style="display:inline;overflow:visible;opacity:0.3;" width="1920" height="1920" xlink:href="C8737880.jpg"  transform="matrix(0.3484 0 0 0.3012 -108.2031 -44.9272)">
	</image>
	<path class="st4" d="M167.1,145.5"/>
</g>
</svg>
