<?xml version="1.0" encoding="utf-8"?>
<!-- Generator: Adobe Illustrator 27.8.1, SVG Export Plug-In . SVG Version: 6.00 Build 0)  -->
<svg version="1.1" xmlns="http://www.w3.org/2000/svg" xmlns:xlink="http://www.w3.org/1999/xlink" x="0px" y="0px"
	 viewBox="0 0 1000 1000" style="enable-background:new 0 0 1000 1000;" xml:space="preserve">
<style type="text/css">
	.st0{stroke:#000000;stroke-miterlimit:10;}
	.st1{fill:none;}
	.st2{fill:#FFFFFF;}
	.st3{font-family:'MyriadPro-Regular';}
	.st4{font-size:25px;}
	.st5{fill:#17006A;stroke:#FFFFFF;stroke-miterlimit:10;}
	.st6{fill:#FFFFFF;stroke:#FFFFFF;stroke-miterlimit:10;}
	.st7{fill:none;stroke:#FFFFFF;stroke-width:3;stroke-miterlimit:10;}
</style>
<g id="Layer_2">
	<rect class="st0" width="1000" height="1000"/>
</g>
<g id="Layer_1">
	<rect x="9.67" y="9.94" class="st1" width="317.47" height="44.8"/>
	<text transform="matrix(1 0 0 1 12.1351 41.2094)" class="st2 st3 st4">inspiration words: Chart, Loop</text>
	<polygon class="st5" points="373.9,738.3 303.82,738.3 303.82,264.33 373.9,282.73 	"/>
	<polygon class="st5" points="570.72,439.46 570.72,738.31 500.63,738.31 500.63,390.13 	"/>
	<polygon class="st5" points="472.3,324 472.3,738.31 402.23,738.31 402.23,352.71 	"/>
	<polygon class="st5" points="669.12,447.34 669.12,738.31 599.05,738.31 599.05,472.01 	"/>
	<polyline class="st6" points="727.5,738.31 669.12,738.31 599.05,738.31 570.72,738.31 500.63,738.31 472.3,738.31 402.23,738.31 
		373.9,738.31 303.82,738.31 281.78,738.31 	"/>
	<line class="st6" x1="281.77" y1="738.3" x2="281.77" y2="241.84"/>
	<path class="st6" d="M373.9,344.31"/>
	<path class="st7" d="M373.9,344.31c27.91-10.52,58.71-19.3,91.44-25.66c144.04-28,270.92,1.37,283.41,65.6
		s-94.16,138.99-238.2,166.99s-270.92-1.37-283.41-65.6c-6.99-35.95,23.35-75.2,76.68-107.71"/>
</g>
</svg>
