<?xml version="1.0" encoding="UTF-8"?>
<svg xmlns="http://www.w3.org/2000/svg" viewBox="0 0 201.84 194.99">
  <defs>
    <style>
      .cls-1, .cls-2, .cls-3, .cls-4 {
        stroke-miterlimit: 10;
      }

      .cls-1, .cls-2, .cls-4 {
        stroke: #1d1d1b;
      }

      .cls-1, .cls-3, .cls-5 {
        fill: #1d1d1b;
      }

      .cls-1, .cls-3, .cls-4 {
        stroke-width: 7px;
      }

      .cls-2 {
        stroke-linecap: round;
        stroke-width: 2px;
      }

      .cls-2, .cls-4 {
        fill: none;
      }

      .cls-3 {
        stroke: #fff;
      }

      .cls-5 {
        stroke-width: 0px;
      }
    </style>
  </defs>
  <g id="Layer_7" data-name="Layer 7">
    <path class="cls-4" d="m177.54,123.21C60.6,165.86,30.33,87.44,30.33,87.44c91.26-68.79,147.21,35.77,147.21,35.77Z"/>
    <path class="cls-5" d="m163.07,84.45c-26.34-26-65.02-40.88-100.46-25.15-11.05,4.88-21.08,11.92-29.95,20.2,0,0-4.67-5.21-4.67-5.21,9.68-8.3,20.61-15.32,32.58-20,24.53-9.62,50.97-6.23,73.56,6.59,10.93,6.15,20.97,13.88,29.44,23.13,0,0-.5.45-.5.45h0Z"/>
    <path class="cls-5" d="m12.71,31.26c2.08,14.35,5.34,28.98,11.91,41.93,2.19,4.15,4.86,8.06,8.11,10.73,0,0,3.3,3.52,3.3,3.52-4.9,2.36-9.58,5.38-13.42,9.24-2.73,2.88-5.7,5.79-7.19,9.52,0,0-6-3.6-6-3.6,1.62-1.69,2.67-3.7,4.14-5.44,3.85-4.9,8.44-9.19,13.55-12.75.49-.34.93-.64,1.53-1.01l-.69,5.61c-3.9-4.14-6.25-8.92-8.1-13.68-5.18-14.14-6.73-29.17-7.12-44.08h0Z"/>
    <path class="cls-4" d="m45.36,127.95l-9.57,21.34c-1.45,3.23-.99,7.01,1.19,9.8h0c3.45,4.42,10.15,4.37,13.53-.09l.61-.8c1.91-2.52,2.45-5.83,1.44-8.83l-7.2-21.42Z"/>
    <path class="cls-4" d="m73.43,135.91l-11.22,25.04c-1.7,3.79-1.17,8.22,1.39,11.5h0c4.04,5.19,11.91,5.13,15.88-.11l.71-.94c2.24-2.96,2.88-6.84,1.69-10.36l-8.45-25.13Z"/>
    <polygon class="cls-5" points="188.1 134.68 174.97 125.58 180.12 120.84 188.1 134.68 188.1 134.68"/>
  </g>
  <g id="Layer_8" data-name="Layer 8">
    <circle class="cls-1" cx="100.92" cy="99.96" r="34.47"/>
    <circle class="cls-3" cx="100.92" cy="99.96" r="12.75"/>
    <path class="cls-2" d="m77.03,164.18s-2.29,8.8-7.8,4.67"/>
    <path class="cls-2" d="m47.59,151.95s-1.65,6.34-5.62,3.37"/>
  </g>
</svg>