<?xml version="1.0" encoding="utf-8"?>
<!-- Generator: Adobe Illustrator 27.8.1, SVG Export Plug-In . SVG Version: 6.00 Build 0)  -->
<svg version="1.1" id="Layer_2_00000021108387332663223330000007867163484539583399_"
	 xmlns="http://www.w3.org/2000/svg" xmlns:xlink="http://www.w3.org/1999/xlink" x="0px" y="0px" viewBox="0 0 252.9 252.9"
	 style="enable-background:new 0 0 252.9 252.9;" xml:space="preserve">
<style type="text/css">
	.st0{fill:#1D1D1B;}
	.st1{fill:#FFFFFF;}
</style>
<g>
	<path class="st0" d="M49.3,0.7h154.3c27.5,0,49.8,22.3,49.8,49.8v152c0,27.5-22.3,49.8-49.8,49.8H49.3c-27.5,0-49.8-22.3-49.8-49.8
		v-152C-0.5,22.9,21.8,0.7,49.3,0.7z"/>
	<circle class="st1" cx="68.5" cy="69" r="18"/>
	<rect x="52.8" y="102" class="st1" width="31.2" height="101.5"/>
	<path class="st1" d="M101.5,102v101.5h30.7l0.2-57c0,0,0.1-15.3,18.1-17.8c15.6-2.2,20.6,11.3,21.2,17.4c0.6,6.1,0,57.5,0,57.5
		h30.5v-69.1c0,0-4.4-40.5-47.4-32.8c0,0-13.2,1.5-24.5,14.9V102H101.5L101.5,102z"/>
</g>
</svg>
