<?xml version="1.0" encoding="utf-8"?>
<!-- Generator: Adobe Illustrator 27.8.1, SVG Export Plug-In . SVG Version: 6.00 Build 0)  -->
<svg version="1.1" id="Layer_1" xmlns="http://www.w3.org/2000/svg" xmlns:xlink="http://www.w3.org/1999/xlink" x="0px" y="0px"
	 viewBox="0 0 1000 1000" style="enable-background:new 0 0 1000 1000;" xml:space="preserve">
<style type="text/css">
	.st0{fill:url(#SVGID_1_);}
	.st1{fill:#F21646;stroke:#000000;stroke-miterlimit:10;}
	.st2{fill:#0066B0;stroke:#000000;stroke-miterlimit:10;}
	
		.st3{opacity:0.88;fill:none;stroke:url(#SVGID_00000129206164426401763500000003242526883360075156_);stroke-width:25;stroke-miterlimit:10;}
</style>
<linearGradient id="SVGID_1_" gradientUnits="userSpaceOnUse" x1="513.766" y1="226.4246" x2="513.766" y2="381.567">
	<stop  offset="0" style="stop-color:#557CFF"/>
	<stop  offset="0.1371" style="stop-color:#7995F5"/>
	<stop  offset="0.3414" style="stop-color:#A8B6E8"/>
	<stop  offset="0.5363" style="stop-color:#CDCFDE"/>
	<stop  offset="0.7164" style="stop-color:#E8E2D7"/>
	<stop  offset="0.8764" style="stop-color:#F8EDD3"/>
	<stop  offset="1" style="stop-color:#FEF1D1"/>
</linearGradient>
<path class="st0" d="M73.03,381.57c0,0,234.39-217.8,374.79-137.28c169.73,97.34,371.9-17.86,506.68,137.28H73.03z"/>
<g>
	<g>
		<path class="st1" d="M114.71,557.51c0.88-2.92,4.18-4.35,6.9-2.96c10.57,5.41,24.37,9.51,38.8,9.51
			c25.07,0,39.71-13.24,39.71-32.39c0-17.74-10.14-27.88-35.77-37.74c-30.98-10.98-53.3-27.22-50.13-53.79
			c3.19-26.79,7.78-40.85,45.44-50.06c16.17-3.95,45.33,1.82,53.94,5.78c2.29,1.05,3.43,3.66,2.62,6.05l-3.61,10.67
			c-0.93,2.74-3.99,4.1-6.63,2.91c-6.98-3.13-17.7-6.62-31.21-6.62c-25.91,0-35.77,15.49-35.77,28.44
			c0,17.74,11.55,26.47,37.74,36.61c32.11,12.39,48.44,27.88,48.44,55.76c0,29.29-21.69,54.63-66.46,54.63
			c-16.35,0-34.06-4.27-44.87-10c-2.1-1.11-3.14-3.52-2.46-5.79L114.71,557.51z"/>
		<path class="st2" d="M257.81,481.98c0-10.33-0.27-19.24-0.61-27.4c-0.22-5.25,4.54-9.61,10.49-9.61l0,0
			c5.6,0,10.21,3.89,10.48,8.83l0.58,10.61h0.53c9.54-13.82,24.64-22.02,45.57-22.02c31,0,54.31,23.19,54.31,57.62
			c0,40.75-28.08,60.9-58.29,60.9c-16.96,0-31.79-6.56-39.48-17.8h-0.53v52.32c0,5.12-4.7,9.28-10.49,9.28h-2.07
			c-5.79,0-10.49-4.15-10.49-9.28V481.98z M280.86,512.2c0,0.7,0.03,1.39,0.08,2.06c0.36,4.85,1.72,9.63,4.35,13.9
			c6.23,10.1,18.04,16.59,31.6,16.59c24.64,0,38.95-17.8,38.95-43.8c0-22.72-13.51-42.16-38.15-42.16
			c-15.9,0-30.73,10.07-35.24,25.53c-0.8,2.58-1.59,5.62-1.59,8.43V512.2z"/>
		<path class="st2" d="M583.01,517.88c-5.66,0-10.01,5.1-9.03,10.67c4.5,25.8,23.81,36.64,45.78,36.64
			c12.31,0,21.23-1.49,28.65-3.72c5.02-1.51,10.25,1.56,11.47,6.65l0,0c1.11,4.67-1.58,9.36-6.15,10.85
			c-8.88,2.89-21.25,5.37-37.35,5.37c-41.96,0-67.03-27.6-67.03-68.72c0-41.12,21.56-64.65,61.27-64.65
			c44.5,0,48.88,26.7,41.93,50.78c-0.66,2.27,0.03-0.04,0,0c-7.03,9.37-7.03,9.37-18.23,12.5L583.01,517.88z M612.62,500.13
			c18.18,0,19.22-27.38,1.06-28.27c-0.73-0.04-1.48-0.05-2.25-0.05c-15.02,0-24.98,8.29-30.98,18.64c-2.49,4.3,0.66,9.69,5.63,9.69
			H612.62z"/>
		<path class="st1" d="M453.23,517.88c-5.66,0-10.01,5.1-9.03,10.67c4.5,25.8,23.81,36.64,45.78,36.64
			c12.31,0,21.23-1.49,28.65-3.72c5.02-1.51,10.25,1.56,11.47,6.65l0,0c1.11,4.67-1.58,9.36-6.15,10.85
			c-8.88,2.89-21.25,5.37-37.35,5.37c-41.96,0-67.03-27.6-67.03-68.72c0-41.12,21.56-64.65,61.27-64.65
			c44.5,0,48.88,26.7,41.93,50.78c-0.66,2.27,0.03-0.04,0,0c-7.03,9.37-7.03,9.37-18.23,12.5L453.23,517.88z M482.84,500.13
			c18.18,0,19.22-27.38,1.06-28.27c-0.73-0.04-1.48-0.05-2.25-0.05c-15.02,0-24.98,8.29-30.98,18.64c-2.49,4.3,0.66,9.69,5.63,9.69
			H482.84z"/>
		<path class="st1" d="M795.75,568.9c1.05,4.62-1.59,9.26-6.09,10.73c-7.6,2.49-18.5,4.71-31.34,4.71
			c-41.12,0-67.87-27.88-67.87-69.56c0-41.96,28.73-72.38,73.22-72.38c9.82,0,18.88,1.65,25.82,3.75c4.83,1.46,7.59,6.51,6.17,11.35
			l-0.37,1.26c-1.45,4.94-6.66,7.65-11.58,6.12c-5.27-1.64-11.89-2.77-20.04-2.77c-31.26,0-48.16,23.09-48.16,51.54
			c0,31.54,20.28,50.98,47.31,50.98c8.61,0,15.44-1.37,21.05-3.14c5.12-1.62,10.52,1.44,11.71,6.68L795.75,568.9z"/>
		<path class="st2" d="M838.87,381.57L838.87,381.57c6.84,0,12.39,5.55,12.39,12.39v72.66h0.56c4.69-15.51,12.74-17.14,21.12-19.48
			c8.01-2.23,12.8-2.52,22.09-2.52c18.31,0,47.48,8.76,47.48,55.8v68.72c0,6.84-5.55,12.39-12.39,12.39l0,0
			c-6.84,0-12.39-5.55-12.39-12.39v-65.9c0-21.97-8.17-40.55-31.54-40.55c-16.05,0-28.72,11.27-33.23,24.78
			c-1.41,3.38-1.69,7.04-1.69,11.83v69.84c0,6.84-5.55,12.39-12.39,12.39h0c-6.84,0-12.39-5.55-12.39-12.39V393.96
			C826.48,387.11,832.03,381.57,838.87,381.57z"/>
	</g>
	
		<linearGradient id="SVGID_00000015343392322137799920000004387464961526023072_" gradientUnits="userSpaceOnUse" x1="103.3442" y1="508.5742" x2="965.3674" y2="508.5742">
		<stop  offset="0.0391" style="stop-color:#FFFFFF"/>
		<stop  offset="0.3433" style="stop-color:#FFFEFC"/>
		<stop  offset="0.607" style="stop-color:#FFFBF1"/>
		<stop  offset="0.855" style="stop-color:#FEF5DF"/>
		<stop  offset="1" style="stop-color:#FEF1D1"/>
	</linearGradient>
	
		<path style="opacity:0.88;fill:none;stroke:url(#SVGID_00000015343392322137799920000004387464961526023072_);stroke-width:25;stroke-miterlimit:10;" d="
		M103.34,539.7c105.2,0,96.68-66,145.83-74.15c84.08-13.94,118.11,73.03,228.12,86.46c90.73,11.07,85.57-65.54,224.99-70.46
		c118.64-4.19,135.82,46.34,261.85,58.84"/>
</g>
</svg>
