<?xml version="1.0" encoding="UTF-8"?>
<svg id="Layer_2" data-name="Layer 2" xmlns="http://www.w3.org/2000/svg" viewBox="0 0 270.07 282.6">
  <defs>
    <style>
      .cls-1 {
        stroke-width: .5px;
      }

      .cls-1, .cls-2 {
        fill: none;
        stroke: #1d1d1b;
        stroke-miterlimit: 10;
      }

      .cls-2 {
        stroke-width: .1px;
      }
    </style>
  </defs>
  <g>
    <path class="cls-1" d="m73.04,129.67s4.13.08,1.91-3.13"/>
    <path class="cls-1" d="m52.56,29.47s-.69-3.29-4.82-4.2c0,0,6.65-1.45,4.74,11.62,0,0-9.25-2.68-4.74-11.62,0,0-.31-2.79,2.75-3.19,0,0,22.47,8.16,19.26,56.92,0,0-1.83,21.4-5.96,30.57,0,0-4.43,17.89,11.16,16.97,0,0,1.07.15,1.53-2.6"/>
    <path class="cls-1" d="m66.61,31.29s-.08.03-.12.04c-.12.03-.24.03-.35.01-1.05-.2-1.49-1.96-2.42-5.46-1.13-4.27-1.33-4.7-1.04-4.9.72-.52,3.58,1.23,4.7,3.91.07.13.12.27.17.41.8,2.31.37,5.52-.94,5.99Z"/>
    <path class="cls-1" d="m70.07,26.46c-.93,3.49-1.37,5.25-2.42,5.46-.14.03-.3.01-.47-.05-.23-.08-.47-.27-.69-.54.04-.01.08-.02.12-.04,1.31-.47,1.74-3.68.94-5.99-.05-.14-.1-.28-.17-.41,1.82-1.54,3.69-2.92,4.83-3.43.31-.14-1,.73-2.14,5Z"/>
    <line class="cls-1" x1="66.14" y1="31.34" x2="61.94" y2="33.24"/>
    <g>
      <path class="cls-1" d="m66.27,61.36c-.27-.78-.68-1.87-1.24-3.15-1.08-2.46-1.62-3.69-2.34-4.33-2.61-2.33-9.08,1.1-9.83,1.5.56.31,1.46.85,2.4,1.7,2.42,2.17,2.54,3.97,4.02,4.95,1.05.7,3.01,1.13,6.99-.67.18.01,1.3.08,2.21-.78.86-.82.9-1.87.9-2.06"/>
      <path class="cls-2" d="m59.44,57.06c.89.17,2.27.55,3.75,1.45,1.55.95,2.54,2.07,3.09,2.81"/>
    </g>
    <g>
      <path class="cls-1" d="m73.1,66.72c.27-.78.68-1.87,1.24-3.15,1.08-2.46,1.62-3.69,2.34-4.33,2.61-2.33,9.08,1.1,9.83,1.5-.56.31-1.46.85-2.4,1.7-2.42,2.17-2.54,3.97-4.02,4.95-1.05.7-3.01,1.13-6.99-.67-.18.01-1.3.08-2.21-.78-.86-.82-.9-1.87-.9-2.06"/>
      <path class="cls-2" d="m79.93,62.42c-.89.17-2.27.55-3.75,1.45-1.55.95-2.54,2.07-3.09,2.81"/>
    </g>
    <g>
      <path class="cls-1" d="m69.84,79c-.97.06-1.95.12-2.92.18-.41.01-.81.03-1.19.06"/>
      <path class="cls-1" d="m54.17,89.25c-.02-1.11.11-3.87,2.06-6.12.19-.22.91-1.09,2.55-1.96.59-.31,1.36-.67,2.33-1"/>
      <path class="cls-1" d="m66.92,79.17c-.28.83-.62,2.08-.75,3.65-.1,1.2,0,1.58-.23,2.29-.42,1.27-1.57,2.43-2.9,2.93-2.25.85-3.54-.78-6.28-.11-1.16.29-2.04.86-2.6,1.3"/>
    </g>
    <path class="cls-1" d="m66.02,80.61c-.43.87-2.76,1.01-4.28.06-.23-.14-.44-.31-.63-.5-2.04-2-1.8-6.12-1.44-6.21.19-.05.24,1.04,1.3,2.06,1.29,1.25,2.38.77,3.75,1.99.35.31.74.76,1.01,1.23.3.49.47,1,.29,1.37Z"/>
    <g>
      <path class="cls-1" d="m71.19,91.27c.3.77.74,1.85,1.34,3.1,1.16,2.42,1.74,3.64,2.48,4.25,2.69,2.24,9.04-1.4,9.78-1.83-.57-.29-1.49-.8-2.46-1.62-2.49-2.08-2.67-3.88-4.18-4.82-1.08-.67-3.05-1.03-6.96.9-.18,0-1.3-.04-2.18.86-.83.85-1.21,1.81-1.21,2"/>
      <path class="cls-2" d="m78.17,95.33c-.9-.14-2.29-.47-3.79-1.33-1.58-.9-2.6-1.99-3.18-2.71"/>
    </g>
    <g>
      <path class="cls-1" d="m59.1,109.27c-.13.6-.35,1.43-.7,2.42-.67,1.91-1.01,2.87-1.67,3.42-2.4,2.03-10.29.46-11.2.27.56-.3,1.43-.81,2.3-1.55,2.22-1.88,1.97-3.19,3.39-4.1,1.02-.65,3.09-1.22,7.88-.48.2-.03,1.42-.23,2.61.26,1.13.47,1.78,1.09,1.82,1.23"/>
      <path class="cls-2" d="m52.45,113.28c.95-.24,2.4-.7,3.84-1.55,1.51-.89,2.37-1.83,2.83-2.44"/>
    </g>
  </g>
  <g>
    <path class="cls-1" d="m173.47,102.51s2.69,3.13,3.61-.66"/>
    <path class="cls-1" d="m234.47,14.09s5.51,3.99-5.51,11.27c0,0-4.17-8.68,5.51-11.27,0,0,1.88-2.09,4.21-.07,0,0,8.89,22.19-29.62,52.29,0,0-17.18,12.89-26.77,15.92,0,0-16.29,8.61-5.22,19.63,0,0,.6.9,2.96-.59"/>
    <g>
      <path class="cls-1" d="m219.9,51.95c.4-.72.94-1.75,1.52-3.02,1.12-2.45,1.67-3.67,1.67-4.63,0-3.5-6.87-6.04-7.67-6.33.15.63.34,1.65.34,2.92,0,3.25-1.27,4.54-1.02,6.29.18,1.25,1.17,3,5.16,4.76.11.14.81,1.02,2.06,1.13,1.18.1,1.99-.57,2.13-.7"/>
      <path class="cls-2" d="m218.55,43.99c.47.78,1.1,2.06,1.41,3.76.32,1.79.14,3.27-.04,4.18"/>
    </g>
    <g>
      <path class="cls-1" d="m220.45,60.61c.76-.32,1.85-.74,3.17-1.17,2.56-.83,3.83-1.25,4.79-1.14,3.48.39,5.23,7.51,5.43,8.33-.61-.22-1.61-.52-2.87-.66-3.23-.36-4.66.75-6.37.31-1.23-.32-2.85-1.5-4.15-5.66-.13-.12-.93-.92-.89-2.17.04-1.19.79-1.91.93-2.04"/>
      <path class="cls-2" d="m228.21,62.85c-.72-.55-1.92-1.33-3.58-1.83-1.74-.52-3.24-.51-4.16-.43"/>
    </g>
    <g>
      <path class="cls-1" d="m209.13,66.36c-.7-.68-1.39-1.37-2.08-2.06-.28-.3-.55-.58-.83-.84"/>
      <path class="cls-1" d="m191.04,61.5c.82-.75,2.96-2.49,5.94-2.53.29-.01,1.42-.05,3.16.59.62.23,1.41.56,2.3,1.07"/>
      <path class="cls-1" d="m207.04,64.3c-.81.35-1.97.92-3.22,1.87-.96.72-1.17,1.06-1.86,1.36-1.23.53-2.86.45-4.12-.21-2.13-1.12-1.78-3.16-4.1-4.75-.99-.68-2-.95-2.7-1.07"/>
    </g>
    <path class="cls-1" d="m206.45,61.88c0,.47-.07,1.06-.23,1.58-.17.55-.45,1.01-.84,1.12-.93.27-2.59-1.38-2.9-3.14-.05-.27-.06-.54-.04-.81.13-2.85,3.36-5.41,3.67-5.21.16.11-.62.87-.67,2.35-.07,1.79,1.01,2.28,1.01,4.11Z"/>
    <g>
      <path class="cls-1" d="m200.88,75.54c-.38.73-.89,1.78-1.42,3.07-1.03,2.48-1.55,3.72-1.52,4.68.12,3.5,7.07,5.81,7.88,6.07-.17-.62-.39-1.64-.43-2.91-.1-3.24,1.12-4.58.81-6.32-.22-1.25-1.27-2.96-5.31-4.59-.11-.14-.84-1-2.09-1.06-1.19-.06-2.16.3-2.3.43"/>
      <path class="cls-2" d="m202.49,83.45c-.49-.76-1.17-2.02-1.54-3.71-.38-1.77-.25-3.27-.1-4.18"/>
    </g>
    <g>
      <path class="cls-1" d="m179.39,78.52c-.53.3-1.3.69-2.27,1.09-1.87.77-2.81,1.16-3.67,1.04-3.11-.44-7.2-7.36-7.67-8.17.6.22,1.56.53,2.69.69,2.88.4,3.69-.66,5.32-.2,1.16.33,2.97,1.49,5.6,5.56.16.12,1.12.91,1.55,2.12.4,1.15.37,2.06.3,2.18"/>
      <path class="cls-2" d="m171.97,76.23c.81.54,2.12,1.32,3.72,1.83,1.67.53,2.94.54,3.7.48"/>
    </g>
  </g>
  <g>
    <path class="cls-1" d="m97.06,152.78s-2.81-2.54-3.41.82"/>
    <path class="cls-1" d="m44.55,228.23s-1.71,2.48.54,5.56c0,0-5.57-3.11,4.45-10.18,0,0,4.62,7.28-4.45,10.18,0,0-1.65,1.94-4.03.34,0,0-10.13-18.73,24.55-47.48,0,0,15.52-12.36,24.48-15.63,0,0,14.97-8.57,3.57-17.43,0,0-.64-.74-2.79.71"/>
    <g>
      <path class="cls-1" d="m56.27,199.87c-.33.65-.78,1.59-1.24,2.73-.89,2.2-1.34,3.3-1.27,4.14.26,3.05,7.02,4.8,7.81,5-.19-.54-.44-1.42-.54-2.52-.23-2.83.88-4.04.52-5.55-.26-1.08-1.34-2.53-5.29-3.8-.12-.12-.85-.84-2.05-.84-1.14,0-1.86.63-1.99.75"/>
      <path class="cls-2" d="m58.15,206.7c-.5-.65-1.21-1.72-1.63-3.18-.44-1.53-.38-2.84-.27-3.64"/>
    </g>
    <g>
      <path class="cls-1" d="m55.12,192.36c-.71.33-1.71.77-2.95,1.23-2.39.9-3.58,1.34-4.5,1.31-3.36-.11-5.56-6.19-5.81-6.89.6.15,1.58.35,2.8.39,3.12.1,4.4-.96,6.08-.69,1.2.2,2.84,1.11,4.39,4.65.13.1.95.74,1.01,1.83.05,1.04-.62,1.72-.74,1.84"/>
      <path class="cls-2" d="m47.52,190.93c.73.43,1.94,1.03,3.56,1.35,1.7.34,3.14.23,4.01.1"/>
    </g>
    <g>
      <path class="cls-1" d="m65.55,186.62c.71.55,1.43,1.1,2.14,1.65.29.24.58.47.86.68"/>
      <path class="cls-1" d="m72.37,191.16c.89.38,1.67.62,2.28.78,1.72.44,2.8.33,3.07.31,2.85-.24,4.45-1.94,5.18-2.64"/>
      <path class="cls-1" d="m67.69,188.26c.75-.35,1.82-.94,2.95-1.84.87-.69,1.05-1,1.69-1.3,1.14-.54,2.7-.58,3.96-.09,2.12.83,1.93,2.63,4.28,3.86,1,.52,1.98.69,2.66.75"/>
    </g>
    <path class="cls-1" d="m72.37,191.16c.09,2.49-2.82,4.94-3.13,4.78-.17-.08.52-.8.47-2.09-.06-1.56-1.14-1.92-1.27-3.51-.03-.41-.01-.93.11-1.39.13-.49.35-.91.72-1.03.87-.3,2.58,1.03,3,2.54.07.23.1.47.1.7Z"/>
    <g>
      <path class="cls-1" d="m72.78,178.07c.31-.66.72-1.61,1.14-2.76.81-2.23,1.21-3.34,1.11-4.18-.37-3.04-7.19-4.59-7.99-4.76.21.53.5,1.4.63,2.51.34,2.82-.73,4.06-.31,5.56.3,1.07,1.43,2.49,5.42,3.64.12.11.88.81,2.08.78,1.14-.03,2.04-.41,2.17-.53"/>
      <path class="cls-2" d="m70.65,171.29c.53.63,1.27,1.68,1.74,3.13.5,1.52.48,2.83.4,3.63"/>
    </g>
    <g>
      <path class="cls-1" d="m93.13,174.05c.49-.29,1.2-.69,2.1-1.1,1.74-.8,2.61-1.19,3.44-1.15,3.01.17,7.43,5.93,7.94,6.6-.59-.15-1.53-.36-2.62-.42-2.79-.16-3.49.82-5.08.53-1.13-.21-2.96-1.1-5.77-4.46-.16-.1-1.14-.71-1.64-1.74-.47-.98-.5-1.77-.44-1.88"/>
      <path class="cls-2" d="m100.41,175.55c-.82-.42-2.13-1.01-3.69-1.34-1.64-.35-2.86-.28-3.58-.18"/>
    </g>
  </g>
  <g>
    <path class="cls-1" d="m228.47,155.65s-3.4-1.68-3.06,1.72"/>
    <path class="cls-1" d="m194.61,222.07c2.1-6.93,6.04-15.3,12.86-25.24,0,0,11.55-16.13,19.27-21.73,0,0,12.06-12.34-1.33-17.74,0,0-.82-.54-2.49,1.45"/>
    <g>
      <path class="cls-1" d="m202.11,212.1c-.14.72-.31,1.74-.45,2.96-.25,2.36-.38,3.54-.09,4.33,1.08,2.86,8.07,2.7,8.88,2.68-.33-.46-.82-1.24-1.2-2.28-1-2.65-.25-4.12-1.02-5.48-.55-.97-1.98-2.07-6.12-2.21-.14-.08-1.05-.57-2.21-.25-1.1.3-1.62,1.12-1.71,1.27"/>
      <path class="cls-2" d="m205.78,218.16c-.66-.48-1.63-1.32-2.43-2.61-.84-1.35-1.14-2.63-1.25-3.43"/>
    </g>
    <g>
      <path class="cls-1" d="m198.95,205.19c-.59.51-1.44,1.21-2.5,1.99-2.05,1.51-3.08,2.27-3.97,2.49-3.26.81-7.04-4.43-7.47-5.04.61-.02,1.61-.1,2.79-.39,3.02-.76,3.97-2.13,5.66-2.32,1.2-.14,3.03.29,5.49,3.27.16.06,1.12.45,1.47,1.49.33.98-.13,1.82-.21,1.97"/>
      <path class="cls-2" d="m191.25,205.89c.82.21,2.15.46,3.79.33,1.73-.14,3.08-.64,3.89-1"/>
    </g>
    <g>
      <path class="cls-1" d="m207.41,196.82c.84.33,1.68.67,2.51,1,.35.16.69.3,1.02.43"/>
      <path class="cls-1" d="m215.22,199.32c.96.13,1.78.15,2.4.13,1.77-.05,2.78-.45,3.04-.54,2.68-1.01,4.07-3.13,4.58-4.01"/>
      <path class="cls-1" d="m209.92,197.82c.62-.54,1.5-1.4,2.34-2.57.64-.91.73-1.25,1.26-1.72.94-.83,2.44-1.3,3.78-1.17,2.27.22,2.58,2,5.17,2.54,1.1.23,2.09.13,2.77,0"/>
    </g>
    <path class="cls-1" d="m213.51,204.78c-.18-.04.28-.92-.12-2.14-.49-1.48-1.62-1.53-2.18-3.03-.14-.38-.26-.89-.27-1.36-.03-.51.08-.98.4-1.2.76-.52,2.77.29,3.59,1.63.12.2.22.42.29.64.76,2.37-1.37,5.52-1.71,5.46Z"/>
    <g>
      <path class="cls-1" d="m212.03,186.62c.11-.72.25-1.74.34-2.97.17-2.37.25-3.55-.07-4.32-1.18-2.82-8.17-2.45-8.99-2.4.34.45.86,1.21,1.29,2.24,1.09,2.62.4,4.11,1.22,5.43.58.95,2.05,2.01,6.21,2.02.15.08,1.07.54,2.22.18,1.09-.34,1.85-.95,1.94-1.1"/>
      <path class="cls-2" d="m208.13,180.68c.68.46,1.68,1.27,2.53,2.53.89,1.33,1.23,2.59,1.38,3.38"/>
    </g>
    <g>
      <path class="cls-1" d="m230.51,177.19c.39-.42.96-.99,1.72-1.63,1.46-1.24,2.18-1.86,2.99-2.04,2.94-.66,8.77,3.68,9.44,4.18-.61.02-1.57.07-2.64.31-2.73.61-3.13,1.74-4.74,1.89-1.15.11-3.15-.25-6.77-2.72-.18-.05-1.29-.37-2.05-1.23-.72-.81-.97-1.56-.94-1.68"/>
      <path class="cls-2" d="m237.92,176.64c-.9-.18-2.32-.39-3.92-.28-1.67.11-2.83.51-3.49.81"/>
    </g>
  </g>
  <g>
    <path class="cls-1" d="m128.1,125.46s1.39-3.12-1.58-2.56"/>
    <path class="cls-1" d="m63.36,117.38c6.65-8.69,18.12-13.15,28.1-7.25,0,0,14.43,8.93,19.53,15.31,0,0,11.12,9.67,15.53-2.53,0,0,.45-.76-1.33-2.08"/>
    <g>
      <path class="cls-1" d="m91.49,110.07s-.01.04-.02.06c-.26.74-.54,1.49-.8,2.23-.13.31-.24.62-.34.92"/>
      <path class="cls-1" d="m89.48,117.13c-.08.86-.08,1.58-.05,2.14.08,1.55.46,2.41.55,2.63.95,2.28,2.84,3.34,3.63,3.72"/>
      <path class="cls-1" d="m90.67,112.35c.49.5,1.26,1.21,2.32,1.86.81.5,1.11.55,1.54.98.75.77,1.2,2.05,1.12,3.24-.14,2.01-1.7,2.42-2.11,4.75-.17.99-.06,1.85.07,2.44"/>
    </g>
    <path class="cls-1" d="m90.04,116.83c-.18.13-.36.23-.56.3-2.06.86-4.87-.78-4.82-1.08.02-.16.8.18,1.87-.27,1.29-.54,1.31-1.54,2.61-2.15.33-.16.78-.3,1.19-.35.44-.05.85,0,1.05.27.48.63-.18,2.46-1.34,3.28Z"/>
    <g>
      <path class="cls-1" d="m100.54,113.35c.64.04,1.54.09,2.61.07,2.08-.03,3.12-.05,3.79-.39,2.45-1.26,1.95-7.39,1.88-8.1-.39.34-1.04.85-1.93,1.31-2.27,1.16-3.59.67-4.73,1.49-.82.59-1.71,1.96-1.62,5.63-.06.13-.45.98-.11,1.97.32.93.88,1.56,1.01,1.62"/>
      <path class="cls-2" d="m105.66,109.47c-.39.63-1.07,1.58-2.16,2.42-1.14.89-2.24,1.29-2.93,1.47"/>
    </g>
    <g>
      <path class="cls-1" d="m109.26,128.91c.37.31.89.77,1.47,1.39,1.12,1.19,1.69,1.78,1.86,2.48.65,2.54-3.01,8-3.44,8.64-.03-.53-.1-1.38-.34-2.3-.6-2.35-1.6-2.63-1.78-4.03-.12-1,.15-2.79,2.22-6.17.04-.16.3-1.17,1.03-1.9.69-.69,1.34-.97,1.45-.96"/>
      <path class="cls-2" d="m109.92,135.39c.14-.81.28-2.08.15-3.47-.14-1.47-.52-2.45-.8-3.01"/>
    </g>
  </g>
</svg>